<svg xmlns="http://www.w3.org/2000/svg" xmlns:xlink="http://www.w3.org/1999/xlink" version="1.1" width="512" height="512" x="0" y="0" viewBox="0 0 48 48" style="enable-background:new 0 0 512 512" xml:space="preserve" class="">
  <g>
    <path d="M24 .5C11 .5.5 11 .5 24S11 47.5 24 47.5 47.5 37 47.5 24 37 .5 24 .5zm0 44C12.7 44.5 3.5 35.3 3.5 24S12.7 3.5 24 3.5 44.5 12.7 44.5 24 35.3 44.5 24 44.5z" fill="#ffffff" opacity="1" data-original="#000000" class=""/>
    <path d="M31.3 11.1c-.7-.4-1.6-.2-2 .6-.4.7-.1 1.6.6 2 3.7 2.1 6 6.1 6 10.3 0 6.5-5.3 11.8-11.8 11.8S12.2 30.5 12.2 24c0-4.3 2.3-8.2 6-10.3.7-.4 1-1.3.6-2s-1.3-1-2-.6c-4.7 2.6-7.6 7.6-7.6 12.9 0 8.2 6.7 14.8 14.8 14.8 8.2 0 14.8-6.7 14.8-14.8 0-5.3-2.9-10.3-7.5-12.9z" fill="#ffffff" opacity="1" data-original="#000000" class=""/>
    <path d="M24 21c.8 0 1.5-.7 1.5-1.5V7c0-.8-.7-1.5-1.5-1.5s-1.5.6-1.5 1.5v12.5c0 .8.7 1.5 1.5 1.5z" fill="#ffffff" opacity="1" data-original="#000000" class=""/>
  </g>
</svg>